<svg xmlns="http://www.w3.org/2000/svg" xmlns:xlink="http://www.w3.org/1999/xlink" version="1.1" width="642px" height="572px" viewBox="-0.5 -0.5 642 572" content="&lt;mxfile&gt;&lt;diagram id=&quot;vllm-mp-startup-flow&quot; name=&quot;vLLM MP startup flow&quot;&gt;7Vhdb9s2FP01BraHFfqO8mgnTjcgATakWNu90dSVxJkWNYqO7f76XVKUJVmSYyQNug7NgyMe3kvdj8MjSjP/ZrN/L0mZP4gE+Mxzkv3Mv515XnR1hb8aONRAHHs1kEmW1JDTAo/sC9Sg26BblkBlsRpSQnDFyj5IRVEAVT2MSCl2fbNU8KQHlCSDAfBICR+iH1mi8hq9dq9b/FdgWa6a9GzcK0LXmRTbwt5u5vlpmq7SsJ7ekGYpa1/lJBG7DuQvZ/6NFELVV5v9DXBd2X7V7iZmj2FLKNQlDoopTNk4PRG+tdk/bHWlpaBQVTpIkE+syPSVIlJtSxu7OjTlUrDH2y1yteEIuHhZKSnWcCO4kIgUokDLRco4P4EIZ1mBQ4oBA+KLJ5CKYSPmdmLDkoQbZ1EoSxRMqh43i2GZvWsv9AJ95zUomtswqNgwaq+1wx3ZMK45+SfIhBSkWdemMlI/C+mwYN+BbD3fg9iAkgc0aWYj21tLfQzKDHctjyLHmuQdDvmRpa+lbnZcue0fXtgWjreTlGzQzJkXcWXzNDumKVn0z1bTbIHFc8xfF4oy+9/4rk4Bu1hLgcZTT/xSmTbN3bjcT69ZlaQ4YuFi/vtvlmpIA2yBZV9429hj7j2XFq6DOYlYjhgO0phwviy7ALPTDDP1nGMVw6vQD2Ak46U3Q4GYG8HKhahAS0GpsxSc0cNIzB2P1ZaheOl9PKzbvDoU9P7+4ZkanV8YiowVOiTKGZhinHEinAtKlDZPJVYDChObtohm10F3ub8e/tAOSSKxkSjmZ9flZFvgru24H/VnolUnEmREFxK713c5U/BYEqpnd/iI6qvTlBR09An7mayApDAQMy02YeTD6jjTPCK8vky5wVCmXPBJrO9FJO2aTasWxtTIU4V0wQwXf7MsM4DzLtD3TFhFVhyMbD+aiPRcR105pGpEW5Uoa0JRlPd7Y3Prxi30Qc/fuse0bBjO11DJoK+ScTRUyWBEJd3Ae71MNhx7A6W8SDrQwGijcZuW3JFVRuzDxfJ0y/RE81LRG1XMF6ujTjGwKTqtRjoyW/0U4+EQe+TEfv3/Kv55PLWubtqDXn3EMsdB/Ok/NM7pC26pkoPRrZwUCZ671vCMh4Ra546noeUe6FaJZ+50VLKdkOvuswy+qZbRlMLVmJa5EfED8iItC0LfS74/LXsD+fKdS/WrOQ6+Rr8aZv1P9OvjyUb5L+jXy053rGCKIVG/aN1I4InhnsVe2rdjfHtS8A01IE0hScIxDQASxg59iQZco3iYTfVDA0InvkwD4q/wpgfuYPufOUKfcAuSDJoeCKlykYmC8GWLLvrsa23uRV1C3TRQ6mBbTvCxODvz/t9un1OKue80IfEtYq6/2ugPAZxUFaMfclbUE3eMd2nekMwfcjEIAsfXLOZkBXxx/BTT2wLmY8zkjpmkbYeivokL+/XJDMNm+NmSFPZMdaZw9NkuMkm6SmwlhZN3eEVkBmp4YtXdO8tPCZwo9tT/lPUqsnnTZBs75fyg2/dDty6zuozrnjHenHE4bL95mrnOZ2V/+S8=&lt;/diagram&gt;&lt;/mxfile&gt;" style="background-color: rgb(255, 251, 245);"><defs><style type="text/css">@font-face {font-family: "Comic Shanns";src: url("https://online-fonts.com/fonts/comic-shanns")}
</style></defs><g><rect x="21" y="0" width="600" height="36" fill="none" stroke="none" pointer-events="all"/><g transform="translate(-0.5 -0.5)"><switch><foreignObject pointer-events="none" width="100%" height="100%" requiredFeatures="http://www.w3.org/TR/SVG11/feature#Extensibility" style="overflow: visible; text-align: left;"><div xmlns="http://www.w3.org/1999/xhtml" style="display: flex; align-items: unsafe center; justify-content: unsafe center; width: 1px; height: 1px; padding-top: 18px; margin-left: 321px;"><div data-drawio-colors="color: #292524; " style="box-sizing: border-box; font-size: 0px; text-align: center;"><div style="display: inline-block; font-size: 20px; font-family: Verdana; color: rgb(41, 37, 36); line-height: 1.2; pointer-events: all; font-weight: bold; white-space: nowrap;">Multiprocess serving startup</div></div></div></foreignObject><text x="321" y="24" fill="#292524" font-family="Verdana" font-size="20px" text-anchor="middle" font-weight="bold">Multiprocess serving startup</text></switch></g><rect x="1" y="62" width="640" height="142" rx="19.88" ry="19.88" fill="none" stroke="none" pointer-events="all"/><path d="M 21.46 62.56 L 625.16 62.6 L 630.38 63.23 L 636.04 67.28 L 639.37 72.69 L 640.6 76.63 L 641.09 189.4 L 638.77 196.41 L 633.32 201.33 L 629.79 202.87 L 620.55 203.33 L 16.47 204.49 L 12.55 202.63 L 5.96 199.39 L 3.89 195.78 L 1.52 188.14 L 1.3 81.68 L 2.38 73.15 L 5.58 66.88 L 11.89 63.26 L 20.36 61.47" fill="#dbeafe" stroke="none" pointer-events="all"/><path d="M 20.88 62 M 20.88 62 C 231 61.78 441.87 62.28 621.12 62 M 20.88 62 C 224.1 62.83 427.42 62.83 621.12 62 M 621.12 62 C 634.17 62.68 641.29 68.36 641 81.88 M 621.12 62 C 634.9 61.52 640.9 68.8 641 81.88 M 641 81.88 C 640.63 122.45 640.67 161.97 641 184.12 M 641 81.88 C 641.58 103.36 641.47 124.62 641 184.12 M 641 184.12 C 640.78 198.05 634.44 204.05 621.12 204 M 641 184.12 C 641.55 196.58 633.86 203.47 621.12 204 M 621.12 204 C 492.68 204.22 363.84 204.08 20.88 204 M 621.12 204 C 438.02 204.83 254.99 204.81 20.88 204 M 20.88 204 C 7.5 204.56 0.79 197.73 1 184.12 M 20.88 204 C 7.01 203.33 1.69 196.81 1 184.12 M 1 184.12 C 1.18 154.3 1.08 123.4 1 81.88 M 1 184.12 C 1.48 162.71 0.84 141.45 1 81.88 M 1 81.88 C 1.63 68.79 6.83 61.99 20.88 62 M 1 81.88 C 1.02 68.28 7.1 62.54 20.88 62" fill="none" stroke="#2563eb" stroke-width="2" stroke-linejoin="round" stroke-linecap="round" stroke-miterlimit="10" pointer-events="all"/><g transform="translate(-0.5 -0.5)"><switch><foreignObject pointer-events="none" width="100%" height="100%" requiredFeatures="http://www.w3.org/TR/SVG11/feature#Extensibility" style="overflow: visible; text-align: left;"><div xmlns="http://www.w3.org/1999/xhtml" style="display: flex; align-items: unsafe flex-start; justify-content: unsafe flex-start; width: 620px; height: 1px; padding-top: 81px; margin-left: 21px;"><div data-drawio-colors="color: #1e3a8a; " style="box-sizing: border-box; font-size: 0px; text-align: left;"><div style="display: inline-block; font-size: 14px; font-family: Verdana; color: rgb(30, 58, 138); line-height: 1.2; pointer-events: all; white-space: normal; overflow-wrap: normal;"><font color="#000000"><b><font style="font-size:18px"><span>[API server process]</span></font><br /></b></font><font style="font-size:14px;color:#57534e">• choose mp policy<br />• build <span>AsyncLLM</span><br />• build engine client<br />• allocate frontend ↔ engine ZMQ addresses<br />• launch engine process</font></div></div></div></foreignObject><text x="21" y="95" fill="#1e3a8a" font-family="Verdana" font-size="14px">[API server process]...</text></switch></g><rect x="1" y="282" width="640" height="124" rx="17.36" ry="17.36" fill="none" stroke="none" pointer-events="all"/><path d="M 19.18 281.87 L 628.22 282.54 L 631.01 282.75 L 636.71 286.61 L 638.21 288.92 L 640.07 295.93 L 640.99 392.37 L 638 399.96 L 633.71 403.16 L 624.38 405.96 L 13.48 405.82 L 11.21 405.16 L 4.59 400.88 L 2.2 396.44 L 1.45 393.27 L 0.81 298.72 L 2.64 292.37 L 5.95 286.94 L 10.29 282.72 L 18.74 281.32" fill="#dcfce7" stroke="none" pointer-events="all"/><path d="M 18.36 282 M 18.36 282 C 153.98 282.19 290.05 282.08 623.64 282 M 18.36 282 C 222.53 282.43 427.06 282.23 623.64 282 M 623.64 282 C 635.12 281.78 641.47 288.17 641 299.36 M 623.64 282 C 636 281.4 640.73 287.95 641 299.36 M 641 299.36 C 641.02 322.47 641.02 346.55 641 388.64 M 641 299.36 C 641.15 326.76 641.61 354.91 641 388.64 M 641 388.64 C 641.35 401.04 634.53 405.86 623.64 406 M 641 388.64 C 640.03 399.67 635.36 406.82 623.64 406 M 623.64 406 C 395.58 405.75 167.13 405.54 18.36 406 M 623.64 406 C 437.48 405.37 251.22 405.57 18.36 406 M 18.36 406 C 7.42 405.32 0.23 400.92 1 388.64 M 18.36 406 C 6.5 406.24 1.93 400.66 1 388.64 M 1 388.64 C 1.65 355.95 1.72 324.52 1 299.36 M 1 388.64 C 1.04 356.56 0.79 325.43 1 299.36 M 1 299.36 C 1.35 287.06 7.49 281.98 18.36 282 M 1 299.36 C 1.81 287.95 7.48 282.47 18.36 282" fill="none" stroke="#16a34a" stroke-width="2" stroke-linejoin="round" stroke-linecap="round" stroke-miterlimit="10" pointer-events="all"/><g transform="translate(-0.5 -0.5)"><switch><foreignObject pointer-events="none" width="100%" height="100%" requiredFeatures="http://www.w3.org/TR/SVG11/feature#Extensibility" style="overflow: visible; text-align: left;"><div xmlns="http://www.w3.org/1999/xhtml" style="display: flex; align-items: unsafe flex-start; justify-content: unsafe flex-start; width: 620px; height: 1px; padding-top: 301px; margin-left: 21px;"><div data-drawio-colors="color: #14532d; " style="box-sizing: border-box; font-size: 0px; text-align: left;"><div style="display: inline-block; font-size: 14px; font-family: Verdana; color: rgb(20, 83, 45); line-height: 1.2; pointer-events: all; white-space: normal; overflow-wrap: normal;"><font color="#000000"><font style="font-size: 18px;"><b style="">[Engine process]</b></font><br /></font><font style="font-size: 14px; color: rgb(87, 83, 78);">• connect back to API server<br />• complete handshake<br />• create MultiprocExecutor<br />• launch worker processes</font></div></div></div></foreignObject><text x="21" y="315" fill="#14532d" font-family="Verdana" font-size="14px">[Engine process]...</text></switch></g><rect x="1" y="484" width="640" height="86" rx="12.04" ry="12.04" fill="none" stroke="none" pointer-events="all"/><path d="M 13.19 483.7 L 631.03 484.03 L 638.36 487.68 L 641.31 493.42 L 640.3 560.98 L 638.45 567.31 L 633.51 569.08 L 629.03 570.17 L 9.86 569.69 L 3.66 567.55 L 0.62 560.95 L 0.75 496.64 L 2.42 490.07 L 4.3 487.23 L 7.07 485.19 L 12.78 483.36" fill="#ffedd5" stroke="none" pointer-events="all"/><path d="M 13.04 484 M 13.04 484 C 158.94 484.54 304.17 485.03 628.96 484 M 13.04 484 C 136.96 483.85 260.59 483.73 628.96 484 M 628.96 484 C 636.16 484.83 640.19 488.06 641 496.04 M 628.96 484 C 636.87 483.19 641.25 488.61 641 496.04 M 641 496.04 C 640.72 515.02 641.8 534.12 641 557.96 M 641 496.04 C 640.78 520.85 640.61 545.32 641 557.96 M 641 557.96 C 640.39 566.12 636.45 570.11 628.96 570 M 641 557.96 C 641.76 565.83 636.3 569.36 628.96 570 M 628.96 570 C 384.1 570.8 139.6 570.98 13.04 570 M 628.96 570 C 455.53 571.06 282.26 571.13 13.04 570 M 13.04 570 C 4.51 569.47 1.37 565.86 1 557.96 M 13.04 570 C 4.24 570.11 1.17 565.78 1 557.96 M 1 557.96 C 1.36 537.77 0.95 516.09 1 496.04 M 1 557.96 C 1.18 544.51 0.68 531.09 1 496.04 M 1 496.04 C 1.18 487.18 4.44 484.62 13.04 484 M 1 496.04 C 1.31 487.33 4.25 484.61 13.04 484" fill="none" stroke="#ea580c" stroke-width="2" stroke-linejoin="round" stroke-linecap="round" stroke-miterlimit="10" pointer-events="all"/><g transform="translate(-0.5 -0.5)"><switch><foreignObject pointer-events="none" width="100%" height="100%" requiredFeatures="http://www.w3.org/TR/SVG11/feature#Extensibility" style="overflow: visible; text-align: left;"><div xmlns="http://www.w3.org/1999/xhtml" style="display: flex; align-items: unsafe flex-start; justify-content: unsafe flex-start; width: 620px; height: 1px; padding-top: 503px; margin-left: 21px;"><div data-drawio-colors="color: #9a3412; " style="box-sizing: border-box; font-size: 0px; text-align: left;"><div style="display: inline-block; font-size: 14px; font-family: Verdana; color: rgb(154, 52, 18); line-height: 1.2; pointer-events: all; white-space: normal; overflow-wrap: normal;"><font color="#000000"><font style="font-size: 18px;"><b style="">[Worker process]</b></font><br /></font><font style="font-size:14px;color:#57534e">• initialize device/model state</font></div></div></div></foreignObject><text x="21" y="517" fill="#9a3412" font-family="Verdana" font-size="14px">[Worker process]...</text></switch></g><path d="M 321 204 L 321 274.7" fill="none" stroke="none" pointer-events="stroke"/><path d="M 321 280.32 L 318.5 272.82 L 321 274.7 L 323.5 272.82 Z" fill="none" stroke="none" pointer-events="all"/><path d="M 321 204 M 321 204 C 321.42 219.29 320.81 235.12 321 274.7 M 321 204 C 321.03 226.83 321.14 250.07 321 274.7" fill="none" stroke="#57534e" stroke-width="1.5" stroke-linejoin="round" stroke-linecap="round" stroke-miterlimit="10" pointer-events="stroke"/><path d="M 318.74 272.54 C 318.74 272.54 318.74 272.54 318.74 272.54 M 318.74 272.54 C 318.74 272.54 318.74 272.54 318.74 272.54 M 320.65 279.5 C 321.87 277.93 323.4 276.6 325.24 274.21 M 320.65 279.5 C 321.82 278.2 322.84 276.88 325.24 274.21" fill="none" stroke="#57534e" stroke-width="0.75" stroke-linejoin="round" stroke-linecap="round" stroke-miterlimit="10" pointer-events="all"/><path d="M 321 280.32 M 321 280.32 C 320.25 278.64 319.72 276.85 318.5 272.82 M 321 280.32 C 320.5 278.81 320.04 277.14 318.5 272.82 M 318.5 272.82 C 319.41 273.6 320.43 274.28 321 274.7 M 318.5 272.82 C 319.17 273.31 319.78 273.74 321 274.7 M 321 274.7 C 321.89 274.1 322.68 273.47 323.5 272.82 M 321 274.7 C 321.82 274.04 322.7 273.45 323.5 272.82 M 323.5 272.82 C 322.82 274.64 322.24 276.34 321 280.32 M 323.5 272.82 C 322.67 275.44 321.66 278.16 321 280.32" fill="none" stroke="#57534e" stroke-width="1.5" stroke-linejoin="round" stroke-linecap="round" stroke-miterlimit="10" pointer-events="all"/><g transform="translate(-0.5 -0.5)"><switch><foreignObject pointer-events="none" width="100%" height="100%" requiredFeatures="http://www.w3.org/TR/SVG11/feature#Extensibility" style="overflow: visible; text-align: left;"><div xmlns="http://www.w3.org/1999/xhtml" style="display: flex; align-items: unsafe center; justify-content: unsafe center; width: 1px; height: 1px; padding-top: 242px; margin-left: 321px;"><div data-drawio-colors="color: #44403c; background-color: #fffbf5; " style="box-sizing: border-box; font-size: 0px; text-align: center;"><div style="display: inline-block; font-size: 13px; font-family: Verdana; color: rgb(68, 64, 60); line-height: 1.2; pointer-events: all; background-color: rgb(255, 251, 245); white-space: nowrap;">launch engine process</div></div></div></foreignObject><text x="321" y="246" fill="#44403c" font-family="Verdana" font-size="13px" text-anchor="middle">launch engine process</text></switch></g><path d="M 321 406 L 321 476.7" fill="none" stroke="none" pointer-events="stroke"/><path d="M 321 482.32 L 318.5 474.82 L 321 476.7 L 323.5 474.82 Z" fill="none" stroke="none" pointer-events="all"/><path d="M 321 406 M 321 406 C 321.11 420.98 321.35 436.87 321 476.7 M 321 406 C 320.82 433.98 320.8 462.08 321 476.7" fill="none" stroke="#57534e" stroke-width="1.5" stroke-linejoin="round" stroke-linecap="round" stroke-miterlimit="10" pointer-events="stroke"/><path d="M 318.38 474.96 C 318.38 474.96 318.38 474.96 318.38 474.96 M 318.38 474.96 C 318.38 474.96 318.38 474.96 318.38 474.96 M 320.94 481.16 C 322.08 479.86 323.43 478.08 324.88 476.63 M 320.94 481.16 C 321.78 480.13 322.64 479.27 324.88 476.63" fill="none" stroke="#57534e" stroke-width="0.75" stroke-linejoin="round" stroke-linecap="round" stroke-miterlimit="10" pointer-events="all"/><path d="M 321 482.32 M 321 482.32 C 320.25 479.56 319.08 476.74 318.5 474.82 M 321 482.32 C 320.33 480.52 319.88 478.65 318.5 474.82 M 318.5 474.82 C 319.38 475.48 320.08 476.14 321 476.7 M 318.5 474.82 C 318.98 475.21 319.47 475.54 321 476.7 M 321 476.7 C 321.48 476.23 322 475.91 323.5 474.82 M 321 476.7 C 321.61 476.31 322.15 475.85 323.5 474.82 M 323.5 474.82 C 322.77 477.07 322.11 479.25 321 482.32 M 323.5 474.82 C 322.66 477.17 321.86 479.66 321 482.32" fill="none" stroke="#57534e" stroke-width="1.5" stroke-linejoin="round" stroke-linecap="round" stroke-miterlimit="10" pointer-events="all"/><g transform="translate(-0.5 -0.5)"><switch><foreignObject pointer-events="none" width="100%" height="100%" requiredFeatures="http://www.w3.org/TR/SVG11/feature#Extensibility" style="overflow: visible; text-align: left;"><div xmlns="http://www.w3.org/1999/xhtml" style="display: flex; align-items: unsafe center; justify-content: unsafe center; width: 1px; height: 1px; padding-top: 444px; margin-left: 321px;"><div data-drawio-colors="color: #44403c; background-color: #fffbf5; " style="box-sizing: border-box; font-size: 0px; text-align: center;"><div style="display: inline-block; font-size: 13px; font-family: Verdana; color: rgb(68, 64, 60); line-height: 1.2; pointer-events: all; background-color: rgb(255, 251, 245); white-space: nowrap;">launch worker processes</div></div></div></foreignObject><text x="321" y="448" fill="#44403c" font-family="Verdana" font-size="13px" text-anchor="middle">launch worker processes</text></switch></g></g><switch><g requiredFeatures="http://www.w3.org/TR/SVG11/feature#Extensibility"/><a transform="translate(0,-5)" xlink:href="https://www.diagrams.net/doc/faq/svg-export-text-problems" target="_blank"><text text-anchor="middle" font-size="10px" x="50%" y="100%">Text is not SVG - cannot display</text></a></switch></svg>